PathFileType	4	(X/Y/Z)	pose_F01_0-77.trc
DataRate	CameraRate	NumFrames	NumMarkers	Units	OrigDataRate	OrigDataStartFrame	OrigNumFrames
30	30	10	21	m	30	51	77
Frame#	Time	CHip			RHip			RKnee			RAnkle			RBigToe			RSmallToe			RHeel			LHip			LKnee			LAnkle			LBigToe			LSmallToe			LHeel			Neck			Nose			RShoulder			RElbow			RWrist			LShoulder			LElbow			LWrist			
		X1	Y1	Z1	X2	Y2	Z2	X3	Y3	Z3	X4	Y4	Z4	X5	Y5	Z5	X6	Y6	Z6	X7	Y7	Z7	X8	Y8	Z8	X9	Y9	Z9	X10	Y10	Z10	X11	Y11	Z11	X12	Y12	Z12	X13	Y13	Z13	X14	Y14	Z14	X15	Y15	Z15	X16	Y16	Z16	X17	Y17	Z17	X18	Y18	Z18	X19	Y19	Z19	X20	Y20	Z20	X21	Y21	Z21	
51	1.7	-0.24510431488469364	1.8856151786789928	-0.5668406551785171	-0.2630346348386901	1.8844432187890405	-0.5085140519591178	-0.26366492152269644	1.7400175422398083	-0.5016146877910277													-0.22400511047311567	1.8841689169084135	-0.6270564143860263	-0.21922586871967464	1.7366372863591852	-0.5882221794027189	-0.21726302044377477	1.5877394247192496	-0.5671371317159746	-0.2202216426063548	1.5515614772778572	-0.6376396094700445	-0.2099637768888963	1.561831524533793	-0.6450900755084293	-0.22019474474616363	1.5755984637462563	-0.5370663565908619	-0.23779294887692756	2.0586668900376046	-0.5992129996689223	-0.21417880186268565	2.1210322750918644	-0.7207748606336776	-0.26279474295970323	2.0678592736590184	-0.5163911517683981	-0.28417487311644635	1.9772699535265814	-0.43654206244079724	-0.2925991183518699	1.907164564938773	-0.46785750523626046	-0.20680193786000664	2.0528211315981055	-0.6814866231126772	-1.347128067972944	1.8702987535625426	0.5062006433183633	-0.19750530299107993	1.8891692517920042	-0.7015549078803548
52	1.7333333333333334	-0.2484131022702965	1.8850970176522457	-0.5591113775380991	-0.2661244938846787	1.883902106181382	-0.4922015360836401	-0.26366492152269644	1.7400175422398083	-0.5016146877910277													-0.23166007212965628	1.8872952472026066	-0.6155495380262284	-0.22090587652061927	1.7363246209736436	-0.5862590691321542	-0.21721350304746176	1.5873852781506903	-0.5672213433905531	-0.22052216527787247	1.553259334248363	-0.6374270902575838	-0.2112225296456741	1.5609514176040764	-0.6476515718886999	-0.21976539010148366	1.575161205912456	-0.5388941724640989	-0.24440085249674395	2.0582798631265	-0.5759100974723758	-0.23118558795075395	2.1324196600063647	-0.6774548117339284	-0.2708154301036286	2.062922785231143	-0.4898699925709501	-0.29183783677447517	1.9698057260887853	-0.40979138396389553	-0.2943170138610392	1.9068986221115545	-0.45704704939308194	-0.21636792950473438	2.0566890917940603	-0.6575903383660112	-1.379135623812515	1.873804058686484	0.5515664167558455	-0.2019455343956842	1.8964318355316279	-0.6893267484017346
53	1.7666666666666666	-0.2522815057380195	1.8843590271891995	-0.5456017161970846	-0.2665787152081051	1.8803169102428603	-0.47756950256116715	-0.26366492152269644	1.7400175422398083	-0.5016146877910277													-0.23556522167372532	1.8875733508152506	-0.6105240820717567	-0.22364569133298975	1.7284850094433868	-0.5782183054197049	-0.2172878286366807	1.5875611595054606	-0.5672099124351311	-0.22242934616405463	1.5545569685620095	-0.6357816578906559	-0.21218733481420465	1.5619107580429112	-0.6428292851877735	-0.21933603545680366	1.5747239480786557	-0.5407219883373358	-0.2506365538932512	2.059650641280157	-0.5523144618785824	-0.2447681984324521	2.1383521270962547	-0.6408064668506421	-0.27545626918958294	2.0618359588398354	-0.46345814768215676	-0.2970655365665821	1.9675043415293145	-0.38596968234734674	-0.29814994111420645	1.9010808152736087	-0.44319778347381794	-0.22315214568826713	2.058840904222847	-0.6427619520703772	-0.21013280202904555	1.9734968620827253	-0.6553068437421782	-0.20869328636196927	1.897084606866732	-0.6826294017806053
54	1.8	-0.2545129076882835	1.885468698087014	-0.5348941530915772	-0.270819937091722	1.8793962946876066	-0.4729971771498585	-0.26366492152269644	1.7400175422398083	-0.5016146877910277													-0.23702839335516976	1.8899819729217813	-0.6055370398003995	-0.22800688539342692	1.7294546828989144	-0.5737192528533531	-0.21721309539582806	1.5871605070821118	-0.5671587328182973	-0.22026361823810856	1.5547184034644355	-0.6379015770717341	-0.21003281876598723	1.562077432890228	-0.6449856542643919	-0.2189066808121237	1.5742866902448553	-0.5425498042105728	-0.25888252709622067	2.058018966468137	-0.5353037776521004	-0.25865015841804817	2.1418508621644055	-0.6153672752748102	-0.28314473345062025	2.058678173015473	-0.44575098867977275	-0.3033964521136821	1.965055708044895	-0.36568527877940843	-0.30020448165481955	1.8968554037945857	-0.43167055990983294	-0.22958374769940357	2.0628532148548	-0.6277766843986073	-0.21774718995659864	1.9751678112718243	-0.6434594210056491	-0.21217475788849316	1.8992572969715171	-0.6752054282767198
55	1.8333333333333333	-0.25894871390104035	1.8887574719831097	-0.5226210000206063	-0.2780335102787181	1.8816729379542376	-0.4614015514510874	-0.26366492152269644	1.7400175422398083	-0.5016146877910277													-0.2424652745987292	1.8934253489732766	-0.5960343444574406	-0.23016910486231143	1.732782243195166	-0.5718557754079919	-0.21921647934507332	1.5871278365001846	-0.5650964891140301	-0.2222925650868495	1.5535330508866136	-0.6359756919478122	-0.21203672933713452	1.5635943194158723	-0.6433822657446752	-0.2184732856467163	1.577091644432565	-0.5391027971747687	-0.26194497711003584	2.057323984233914	-0.5109824104108902	-0.26726770670914674	2.1422308695566494	-0.5818881478710682	-0.2875682925690019	2.0539551351797702	-0.4192208145400891	-0.30084166349804314	1.9620957292252499	-0.3498151015317658	-0.3014595531720234	1.8895371807126022	-0.4108637843683704	-0.2364115656202335	2.0615135464760734	-0.6043900057528653	-0.22066526208522547	1.980513862070938	-0.6357623737307523	-0.216486548520577	1.9075175511350253	-0.6717095778771541
56	1.8666666666666667	-0.262089266094699	1.887312366736755	-0.5146485962531292	-0.27867460355893886	1.8831781829616914	-0.44734402509074367	-0.26366492152269644	1.7400175422398083	-0.5016146877910277													-0.24403290928249385	1.8920454009723005	-0.5734295375391082	-0.23265645384417716	1.7355504453998305	-0.5696251590580655	-0.21725819445684552	1.587545633072446	-0.5671321122683332	-0.22223006139984	1.5533391285329858	-0.6359984954520618	-0.21315461866305993	1.562182289477847	-0.6459593095487794	-0.21825918606097755	1.579055265025465	-0.5395547999384069	-0.26901965821714485	2.055337242952969	-0.49915086418104937	-0.2735093710396432	2.1418161844494286	-0.5673851577196165	-0.291258665867304	2.051071185034112	-0.40589576122101617	-0.30785327891070874	1.9547472986443233	-0.33118166903148355	-0.30509257045355404	1.8903677344551868	-0.39804956841995726	-0.2407298462737669	2.0624846489832978	-0.5915148010315034	-0.22051451102301692	1.9818209190375622	-0.6163204513985039	-0.22207957936392206	1.909606719084678	-0.6620441218768052
57	1.9	-0.26505444186460475	1.8904957833247227	-0.5074848476199548	-0.2787298398206117	1.8847737994249425	-0.43904659506052224	-0.26366492152269644	1.7400175422398083	-0.5016146877910277													-0.2460561952766496	1.89512444010674	-0.5713387840469724	-0.23563898169008915	1.7348030207105056	-0.5704690498795498	-0.21909090758028146	1.5864354383550492	-0.5649543964029898	-0.22127897796467846	1.5532716520834402	-0.6329419445304615	-0.2121525013958138	1.5617879034281545	-0.6428399491245778	-0.21761749723696708	1.5728584036044069	-0.539235359757018	-0.2729381483853224	2.056522464995129	-0.487004364263576	-0.2796693809569483	2.141667946252584	-0.5535675517255532	-0.29595636625635224	2.050962811633701	-0.3969252037316944	-0.30541192046878624	1.9512216738003296	-0.30160851002719424	-0.3010342124805352	1.8892078063987177	-0.38489156661251905	-0.24291357487084597	2.06294292800607	-0.5807358983112486	-0.2245884493010235	1.9852365621890666	-0.6031059717082449	-0.22390844359856024	1.9197177513833985	-0.6607413331228519
58	1.9333333333333333	-0.2681386746409384	1.8902193895391515	-0.49975613810531744	-0.2834593846070194	1.8846764760838302	-0.42932802852044977	-0.26366492152269644	1.7400175422398083	-0.5016146877910277													-0.24927698254158379	1.8936831474511093	-0.5637811901807592	-0.2348870235392954	1.7353532049156286	-0.567240707369333	-0.21913723687761502	1.586676180446306	-0.564948207354638	-0.22226692878143509	1.553662422753488	-0.6360360323610567	-0.2122075210689485	1.562079778899739	-0.6429019343040484	-0.21785818860791245	1.5743883018801403	-0.5389697030409578	-0.2738174241722203	2.057826527141097	-0.4814579249094339	-0.2817432911816598	2.142081741720967	-0.5368305305534211	-0.30036397856897823	2.0517496273655107	-0.38755590907514953	-0.30762536616548597	1.9594582146367923	-0.28135663676893496	-0.31453104354077843	1.8998438195117295	-0.35195334825053887	-0.24534949479336202	2.064750713023797	-0.5628799968096035	-0.2208753938319212	1.990046178610316	-0.5820637129346652	-1.41811756148342	1.8473761793058057	0.6123542434180813
59	1.9666666666666666	-0.26937355914825206	1.8901549196256713	-0.49436068085640145	-0.28473066306993045	1.8856258259214986	-0.42435461891422294	-0.26366492152269644	1.7400175422398083	-0.5016146877910277													-0.25347083066708703	1.8946156176682643	-0.5594017852091605	-0.23664379291607282	1.7328991664918734	-0.5650804553995259	-0.21916769255676397	1.5865921884528826	-0.5649215312879061	-0.2223812435867191	1.553987936865923	-0.6360100859310858	-0.21202435655279	1.5636427168500495	-0.6433923073525056	-0.21983599886585523	1.573960889259065	-0.536738489745332	-0.27270749539136563	2.0609550301097723	-0.47085956386484695	-0.28280094944483347	2.140661303427208	-0.5310329599456174	-0.3011366424579724	2.0551786816970963	-0.3833903308413071	-0.30694029421208363	1.9633385941052506	-0.25955238352172044	-0.3173119812692704	1.8967433370125726	-0.31525394666673084	-0.2484219186028105	2.064458159930185	-0.5553805417429699	-0.2208958989198682	1.9925560366918589	-0.573475040848698	-0.2156711861036602	1.939700944315122	-0.637998263912586
60	2.0	-0.2702028656785422	1.8879304570704523	-0.4882840451764418	-0.28623121803049006	1.8811570736121923	-0.4209140699906068	-0.26366492152269644	1.7400175422398083	-0.5016146877910277													-0.25752624213918296	1.8939210157410573	-0.5546096433424982	-0.23867660552025746	1.728392034198748	-0.5623371518113033	-0.21919473722667202	1.5866962807410483	-0.5647665691796284	-0.2217304835426373	1.553156991100226	-0.632004250632952	-0.2121748081302004	1.5617016785055933	-0.6426671299143264	-0.22027795768928343	1.5732580870205308	-0.533982240754121	-0.2756547235404197	2.058211261370812	-0.46304942286410167	-0.2848184609722498	2.1368520382544767	-0.5278020746495633	-0.30203434381317223	2.0524755800556433	-0.37752316846300904	-0.3039270653800304	1.96565135344093	-0.2448586185029362	-0.31396461789781027	1.9042125972263204	-0.29285406524719026	-0.250451641848909	2.0657770350123967	-0.5535802637786337	-1.5778693978367047	1.8850147328062363	0.8940300590293104	-0.20972694444967846	1.9470782104487427	-0.6187983899833104
